<?xml version="1.0" encoding="UTF-8"?><svg id="b" xmlns="http://www.w3.org/2000/svg" viewBox="0 0 764.42 1122.06"><defs><style>.e,.f,.g,.h,.i,.j{stroke:#00539f;}.e,.g{fill:#00539f;}.e,.j{stroke-width:6px;}.f,.h{stroke-width:5px;}.f,.i,.j{fill:none;}.k{fill:#ffd520;stroke:#ffd520;}.h{fill:#fff;}.i{stroke-width:3px;}</style></defs><g id="c"><g id="d"><path class="h" d="M381.68,1119.47c26.41-7.55,380.24-164.83,380.24-568.54S385.45,2.67,385.45,2.67C385.45,2.67,2.5,146.05,2.5,549.75s343.34,560.28,379.18,569.72Z"/><path class="g" d="M381.68,991.19c18.49-5.28,265.04-158.02,265.04-440.61S383.57,127.18,383.57,127.18c0,0-268.44,139.98-268.44,422.57s241.47,434.83,266.56,441.43Z"/><path class="k" d="M381.68,374.31s-20.75,16.98-41.5,35.84c-31.48,28.62-93.8,88.98-99.98,143.37-9.43,83,69.8,196.19,69.8,196.19,0,0,52.82-13.21,71.69-13.21s67.91,13.21,67.91,13.21c0,0,67.91-90.55,67.91-179.22s-89.97-153.3-98.1-162.24c-18.86-20.75-37.73-33.96-37.73-33.96Z"/><line class="i" x1="381.68" y1="381.85" x2="381.68" y2="708.21"/><path class="i" d="M319.43,721.42s33.96-13.21,62.25-13.21c33.96,0,62.25,13.21,62.25,13.21"/><path class="g" d="M220.83,913.07l-.71.63c-1-.9-2.04-1.33-3.11-1.27-1.07.05-3.52.73-7.35,2.04l-25.76,8.77-.71-.8,13.15-28.56c.9-1.9,1.35-3.18,1.37-3.85.02-.67-.3-1.49-.94-2.46l.71-.63,8.55,9.56-.71.63c-1.08-1.01-1.84-1.62-2.27-1.81-.43-.19-.92-.04-1.48.46-.19.17-.46.52-.82,1.06-.36.54-.7,1.16-1.02,1.84l-2.31,4.8,8.85,9.9c3.42-1.2,5.49-1.95,6.21-2.25.72-.3,1.24-.59,1.56-.88.64-.57.86-1.23.64-1.97-.14-.46-.58-1.17-1.3-2.13l.71-.63,6.76,7.56ZM196.45,905.48l-6.58,13.66,14.3-5.02-7.72-8.64Z"/><path class="g" d="M154.77,887.08l.77-.58c1.29,1.48,2.31,2.29,3.07,2.44.76.15,1.88-.34,3.35-1.46l12.92-9.82c2.12-1.61,3.55-3.15,4.29-4.63,1.34-2.72.86-5.59-1.44-8.6-2.51-3.31-5.3-4.69-8.37-4.14-1.71.31-3.86,1.44-6.43,3.39l-10.5,7.98c-2.2,1.67-3.37,2.98-3.54,3.93-.16.95.24,2.21,1.21,3.79l-.77.58-7.08-9.31.77-.58c1.36,1.43,2.51,2.16,3.46,2.2.95.03,2.48-.76,4.6-2.37l10.5-7.98c2.79-2.12,5.29-3.34,7.5-3.67,4.08-.6,7.8,1.3,11.17,5.73,3.33,4.37,4.17,8.43,2.53,12.17-.87,2.02-2.56,3.97-5.06,5.88l-12.63,9.6c-1.46,1.11-2.22,2.05-2.29,2.81-.06.77.42,1.96,1.47,3.57l-.77.58-8.74-11.5Z"/><path class="g" d="M152.77,844.33c1.44-1.96,2.42-3.8,2.93-5.5.88-2.98.51-5.72-1.12-8.23-.88-1.36-2.08-2.25-3.58-2.69-1.51-.43-3.03-.14-4.58.86-1.39.9-2.28,2.19-2.66,3.87-.23,1.08-.32,3.1-.26,6.05l.1,5.14c.02,1.55-.12,2.88-.41,4-.57,2.08-1.67,3.64-3.29,4.7-2.16,1.4-4.42,1.85-6.78,1.34-2.36-.5-4.31-1.94-5.84-4.3-.63-.97-1.16-2.3-1.59-3.96-.43-1.67-.7-2.6-.83-2.8-.34-.53-.7-.81-1.07-.86-.37-.05-.81.02-1.33.2l-.57-.88,8.47-6.83.65,1c-2.29,2.48-3.47,4.84-3.56,7.09-.08,2.25.36,4.13,1.34,5.64.76,1.17,1.77,1.97,3.03,2.4,1.26.43,2.5.24,3.73-.55,1.1-.71,1.82-1.66,2.17-2.84.36-1.19.51-2.76.47-4.73l-.12-5.27c-.08-3.3.17-5.82.76-7.56.61-1.73,1.75-3.14,3.42-4.22,2.23-1.45,4.65-1.82,7.24-1.11,2.59.71,4.74,2.37,6.44,4.99.85,1.32,1.5,2.86,1.93,4.61.43,1.76.71,2.74.85,2.95.32.5.7.73,1.13.7.43-.04.85-.14,1.25-.32l.61.94-8.24,7.19-.65-1Z"/><path class="g" d="M112.77,825.1l-13.86-25.17,7.45-4.33.58,1.06c-2.09,1.83-3.27,3.35-3.55,4.55-.27,1.2.3,3.09,1.72,5.67l1.33,2.42,22.81-12.56c1.72-.95,2.64-1.8,2.76-2.55.12-.75-.24-2.05-1.09-3.9l.83-.46,7.11,12.91-.83.46c-1.19-1.82-2.15-2.83-2.89-3.03-.73-.2-2.06.22-3.99,1.28l-22.28,12.27,1.33,2.42c1.36,2.48,2.65,3.96,3.85,4.47,1.2.5,3.12.32,5.76-.54l.58,1.06-7.64,3.98Z"/><path class="g" d="M122.22,773.74c-.97-1.72-1.81-2.68-2.53-2.89-.72-.21-2.03.12-3.93.97l-20.1,9.03c-1.61.73-2.56,1.45-2.84,2.17-.28.72-.11,1.95.52,3.7l-.88.4-5.78-12.87c-1.2-2.68-1.87-5.06-1.99-7.15-.24-3.96,1.37-6.72,4.81-8.27,2.31-1.04,4.43-1.08,6.34-.13,1.92.95,3.65,2.63,5.21,5.04l7.42-14.82c.45-.91.7-1.73.76-2.46.06-.74-.07-1.58-.4-2.54l.88-.4,3.36,7.47-9.03,18.05,1.01,1.94,9.12-4.1c1.7-.76,2.66-1.51,2.88-2.23.22-.73.01-2-.62-3.81l.88-.4,5.8,12.91-.88.4ZM99.17,765.01c-2.12-2-4.59-2.37-7.4-1.11-2.71,1.22-4.06,3.15-4.06,5.8,0,1.42.43,3.1,1.31,5.05.59,1.31,1.05,2.07,1.37,2.28.32.21.83.16,1.53-.16l11.47-5.16c-1.61-3.28-3.02-5.52-4.22-6.7Z"/><path class="g" d="M105.53,733.19l-.88.3c-.57-1.19-1.35-1.96-2.35-2.31-1-.35-3.52-.66-7.57-.94l-27.01-1.86-.34-.97,23.09-21.29c1.53-1.42,2.43-2.44,2.69-3.06.26-.62.28-1.52.05-2.7l.88-.31,4.21,12.19-.88.31c-.61-1.36-1.07-2.21-1.39-2.55-.32-.34-.83-.39-1.53-.15-.23.08-.62.3-1.16.66-.54.36-1.08.79-1.64,1.3l-3.95,3.51,4.36,12.64c3.57.17,5.75.26,6.52.26.78,0,1.37-.06,1.77-.2.81-.28,1.26-.8,1.34-1.57.05-.47-.08-1.3-.38-2.46l.88-.31,3.28,9.51ZM86.09,716.81l-11.32,10.06,15.12.95-3.8-11.02Z"/><path class="g" d="M90.12,689.68c-.64-1.78-1.26-2.88-1.85-3.31-.59-.43-1.81-.42-3.66.04l-21.87,5.42c-1.75.43-2.82.98-3.23,1.65-.4.67-.44,1.94-.12,3.81l-.94.23-3.46-13.97.94-.23c.55,1.8,1.14,2.95,1.79,3.45.65.5,1.79.55,3.41.14l23.65-5.86c.55-.14.95-.34,1.22-.6.27-.26.36-.71.29-1.36-.04-.38-.11-.78-.19-1.19-.08-.41-.27-1.18-.55-2.3-1.09-4.38-2.18-7.25-3.28-8.62-1.1-1.36-3.31-2.4-6.63-3.11l-.31-1.25,9.14.29,6.57,26.54-.94.23Z"/><path class="g" d="M80.88,649.58c-.49-1.97-1.02-3.22-1.59-3.73-.56-.51-1.81-.6-3.73-.27l-22.28,3.88c-1.83.32-2.96.82-3.39,1.51-.42.68-.51,2.03-.26,4.05l-.94.16-2.55-14.62.94-.16c.45,1.98.98,3.22,1.61,3.73.63.5,1.86.59,3.7.27l22.28-3.88c1.92-.34,3.06-.84,3.42-1.51.36-.67.43-2.02.23-4.05l.94-.16,2.55,14.62-.94.16Z"/><path class="g" d="M77.33,623.33l-.94.09c-.27-1.28-.85-2.21-1.74-2.78-.89-.57-3.27-1.46-7.13-2.66l-25.87-8.09-.1-1.03,27.46-15.33c1.82-1.02,2.93-1.81,3.34-2.35.4-.55.63-1.42.68-2.62l.94-.09,1.24,12.85-.94.09c-.27-1.47-.53-2.4-.76-2.81-.23-.41-.71-.58-1.45-.51-.25.03-.67.15-1.28.37-.61.22-1.24.52-1.9.88l-4.68,2.5,1.29,13.28c3.45,1,5.55,1.6,6.3,1.78.76.18,1.35.25,1.77.21.85-.08,1.41-.49,1.67-1.21.16-.45.22-1.27.21-2.47l.94-.09.97,9.98ZM62.2,602.91l-13.36,7.13,14.48,4.44-1.12-11.56Z"/><path class="g" d="M72.24,577.42c-.19-2.11-.65-3.47-1.38-4.07-.73-.61-2.44-.92-5.12-.95l-22.42-.24-.83.69c-.88.74-1.43,1.37-1.65,1.89-.21.52-.34,1.3-.39,2.35h-.94s.09-8.72.09-8.72l24.52-19.33-16.88-.18c-2.78-.03-4.59.36-5.44,1.17-.55.54-.91,1.73-1.1,3.59h-.94s.13-11.92.13-11.92h.94c.18,1.95.64,3.24,1.37,3.89.74.65,2.44.99,5.11,1.02l26.78.29v.87s-28.14,22.17-28.14,22.17l19.8.21c2.78.03,4.6-.36,5.45-1.16.55-.53.94-1.71,1.15-3.54h.94s-.13,11.98-.13,11.98h-.94Z"/><path class="g" d="M50.47,456.79c.9-1.79,1.38-2.8,1.42-3.03.09-.47.05-.94-.13-1.41-.18-.47-.53-.84-1.05-1.11l.21-1.06,11.29,1.71-.22,1.15c-2.36.23-4.33.75-5.9,1.55-2.97,1.54-4.79,4.04-5.46,7.5-.68,3.49.15,6.61,2.49,9.36,2.34,2.75,5.93,4.6,10.78,5.54,4.46.87,8.25.4,11.36-1.42,3.11-1.81,5.02-4.5,5.71-8.07.5-2.58.35-5.08-.47-7.49-.46-1.39-1.25-2.96-2.37-4.73l1.11-.76c1.18,1.37,2.13,2.98,2.87,4.83,1.24,3.14,1.54,6.34.91,9.6-1.04,5.35-3.58,9.27-7.62,11.75-3.73,2.29-7.97,2.97-12.71,2.05-4.86-.94-8.64-3.27-11.34-6.97-2.83-3.9-3.75-8.43-2.74-13.6.35-1.8.98-3.59,1.88-5.38Z"/><path class="g" d="M87.53,443.79l-.88-.26c.23-1.3.03-2.39-.6-3.26-.63-.87-2.5-2.6-5.62-5.17l-20.91-17.26.3-1,31.22-3.87c2.09-.25,3.43-.55,4.02-.91.58-.35,1.12-1.07,1.62-2.16l.88.26-3.69,12.38-.88-.26c.3-1.46.42-2.43.36-2.9-.06-.47-.45-.81-1.17-1.02-.24-.07-.69-.12-1.34-.14-.65-.02-1.36,0-2.12.09l-5.3.55-3.81,12.77c2.83,2.24,4.56,3.59,5.2,4.04.64.46,1.16.75,1.58.87.83.25,1.5.09,2.02-.48.31-.35.69-1.07,1.12-2.17l.88.26-2.88,9.64ZM81.22,419.08l-15.07,1.57,11.74,9.58,3.33-11.15Z"/><path class="g" d="M68.2,392.49l10.4-26.76,8.11,2.88-.44,1.12c-2.74-.42-4.66-.35-5.75.21-1.1.56-2.18,2.22-3.25,4.98l-1.01,2.59,24.29,9.44c1.82.71,3.06.86,3.71.47.65-.39,1.42-1.51,2.3-3.36l.88.34-5.36,13.79-.88-.34c.64-2.09.8-3.48.49-4.17-.31-.69-1.48-1.44-3.5-2.22l-23.76-9.23-1.01,2.59c-1.02,2.62-1.33,4.55-.95,5.79.39,1.24,1.76,2.59,4.11,4.06l-.46,1.18-7.93-3.35Z"/><path class="g" d="M113.8,366.61c.69-1.88.91-3.15.66-3.83-.25-.68-1.36-1.51-3.33-2.49l-19.75-9.79c-1.64-.81-2.84-1.1-3.58-.84-.74.25-1.59,1.19-2.54,2.81l-.83-.41,6.25-12.62.83.41c-.71,1.73-.94,2.96-.69,3.71.25.75,1.19,1.53,2.83,2.34l8.9,4.41,6.9-13.91-8.9-4.41c-1.64-.81-2.83-1.1-3.57-.85-.74.25-1.58,1.18-2.54,2.82l-.83-.41,6.25-12.62.83.41c-.71,1.74-.94,2.98-.7,3.72.25.74,1.19,1.52,2.84,2.33l20.28,10.05c1.67.83,2.86,1.11,3.57.84.71-.27,1.56-1.2,2.54-2.8l.83.41-6.25,12.62-.83-.41c.71-1.88.94-3.16.68-3.84-.26-.67-1.38-1.5-3.35-2.48l-8.84-4.38-6.9,13.91,9.37,4.65c1.67.83,2.86,1.11,3.59.84s1.57-1.2,2.53-2.8l.83.41-6.25,12.62-.83-.41Z"/><path class="g" d="M113.37,305.06c-.91-4.23-.18-8.28,2.21-12.17,2.4-3.9,5.69-6.4,9.89-7.49,4.55-1.18,9.13-.36,13.74,2.47,4.69,2.88,7.5,6.66,8.44,11.35.83,4.2.09,8.19-2.24,11.98-2.49,4.06-5.93,6.58-10.32,7.57-4.47,1-8.9.15-13.29-2.55-4.62-2.83-7.43-6.56-8.43-11.17ZM136.51,314.82c3.27-.46,5.71-2,7.31-4.61,1.57-2.56,1.85-5.39.85-8.5-1-3.11-3.82-6.1-8.47-8.95-4.7-2.89-8.67-4.06-11.89-3.51-3.22.55-5.6,2.08-7.14,4.59-1.59,2.6-1.86,5.46-.8,8.59,1.06,3.13,3.87,6.1,8.42,8.89,4.54,2.79,8.44,3.95,11.71,3.49Z"/><path class="g" d="M159.54,286.13c.94-1.62,1.39-2.79,1.34-3.51-.05-.72-.84-1.64-2.37-2.75l-18.33-13.39c-1.44-1.05-2.55-1.52-3.31-1.41-.76.12-1.75.89-2.97,2.34l-.77-.56,8.48-11.61.77.56c-1.03,1.58-1.52,2.78-1.49,3.6.04.82.74,1.73,2.11,2.73l19.74,14.41c.45.33.87.52,1.24.55.37.04.78-.18,1.23-.65.26-.28.53-.58.79-.91.26-.33.73-.96,1.42-1.9,2.66-3.64,4.15-6.32,4.48-8.05.33-1.72-.31-4.09-1.92-7.11l.76-1.04,5.67,7.21-16.1,22.05-.77-.56Z"/><path class="g" d="M184.18,253.37c1.19-1.67,1.79-2.9,1.81-3.66.02-.77-.73-1.78-2.24-3.03l-17.51-14.43c-1.45-1.19-2.57-1.73-3.37-1.6-.8.12-1.89.95-3.27,2.46l-.71-.58,9.52-11.55.71.58c-1.23,1.64-1.82,2.87-1.79,3.68.03.81.77,1.81,2.22,3.01l17.51,14.43c1.52,1.25,2.65,1.79,3.4,1.62.75-.17,1.83-.99,3.25-2.48l.71.58-9.52,11.55-.71-.58Z"/><path class="g" d="M193.45,193.53c1.71-1.04,2.65-1.65,2.81-1.82.33-.35.54-.77.63-1.27.1-.49,0-.99-.3-1.5l.71-.77,8.7,7.41-.79.85c-2.12-1.05-4.06-1.64-5.82-1.79-3.33-.25-6.19.91-8.58,3.48-2.41,2.6-3.36,5.68-2.84,9.24.52,3.56,2.58,7.01,6.19,10.35,3.31,3.07,6.76,4.66,10.35,4.76,3.59.1,6.61-1.18,9.09-3.85,1.78-1.92,2.97-4.12,3.56-6.6.34-1.41.51-3.17.49-5.25l1.33-.05c.28,1.79.25,3.66-.09,5.62-.59,3.32-2.02,6.19-4.27,8.62-3.7,3.99-7.92,5.97-12.65,5.95-4.37-.02-8.32-1.68-11.85-4.96-3.62-3.36-5.59-7.32-5.93-11.88-.34-4.8,1.27-9.13,4.85-12.98,1.25-1.34,2.72-2.54,4.44-3.58Z"/><path class="g" d="M556.44,220.35c1.4,1.49,2.5,2.29,3.28,2.42.78.13,1.89-.42,3.34-1.64l17.35-14.63c1.43-1.2,2.15-2.2,2.17-3.01.02-.81-.59-2.02-1.83-3.64l.71-.6,9.17,10.87c2.62,3.11,4.2,5.99,4.74,8.66.54,2.67-.41,5.03-2.85,7.09-1.83,1.55-3.76,2.08-5.79,1.6-1.15-.26-2.51-.97-4.08-2.11,1.07,2.14,1.64,4.27,1.69,6.39.06,2.11-.82,3.93-2.63,5.46-3.04,2.56-6.31,2.92-9.81,1.08-1.84-.98-3.67-2.54-5.49-4.7l-10.66-12.65.71-.6ZM571.68,234.65c1.9.69,3.95.11,6.14-1.74,2.18-1.84,3.01-3.88,2.48-6.12-.52-2.24-1.81-4.58-3.86-7.01-.5-.59-.82-.97-.95-1.13-.13-.16-.33-.41-.6-.75l-9.69,8.17c-.67.57-.95,1.12-.82,1.67.12.54.77,1.51,1.93,2.89,1.67,1.99,3.46,3.32,5.37,4.01ZM582.88,223.03c2.14,1,4.2.67,6.17-.99,2.32-1.96,3.09-4.23,2.31-6.8-.44-1.42-1.55-3.2-3.35-5.33-.68-.81-1.17-1.25-1.47-1.32-.3-.07-.76.15-1.38.68l-8.8,7.42,3.17,3.64c1.12,1.28,2.24,2.18,3.36,2.7Z"/><path class="g" d="M584.06,254c1.33,1.54,2.37,2.41,3.1,2.62.74.2,1.89-.28,3.46-1.45l18.11-13.48c1.5-1.11,2.28-2.07,2.35-2.88.07-.8-.46-2.05-1.59-3.74l.77-.57,8.87,11.92-.77.57c-1.29-1.57-2.33-2.44-3.12-2.6-.79-.16-1.93.31-3.43,1.43l-18.11,13.48c-1.57,1.17-2.36,2.13-2.38,2.9-.02.76.52,2,1.62,3.72l-.77.57-8.87-11.92.77-.57Z"/><path class="g" d="M608.79,272.46c-1.43,1.96-2.39,3.8-2.89,5.5-.86,2.97-.48,5.7,1.16,8.19.89,1.35,2.08,2.23,3.59,2.65,1.51.42,3.03.12,4.57-.89,1.39-.91,2.27-2.21,2.64-3.88.22-1.08.3-3.1.23-6.05l-.12-5.13c-.03-1.55.1-2.88.39-3.98.57-2.07,1.66-3.64,3.28-4.7,2.15-1.41,4.41-1.88,6.77-1.39,2.36.48,4.32,1.9,5.86,4.25.63.97,1.17,2.28,1.61,3.94.44,1.66.73,2.58.85,2.78.35.53.7.81,1.07.86.37.04.81-.02,1.31-.19l.58.89-8.41,6.88-.66-1c2.27-2.49,3.43-4.85,3.5-7.1.07-2.25-.39-4.12-1.38-5.62-.77-1.17-1.78-1.96-3.04-2.38-1.26-.42-2.5-.23-3.72.58-1.1.72-1.82,1.67-2.16,2.85-.36,1.19-.5,2.76-.44,4.73l.15,5.27c.1,3.3-.14,5.82-.72,7.56-.6,1.74-1.73,3.16-3.39,4.25-2.23,1.46-4.64,1.85-7.24,1.15-2.6-.7-4.76-2.35-6.47-4.96-.86-1.31-1.51-2.85-1.95-4.61-.44-1.76-.73-2.74-.86-2.95-.33-.5-.71-.73-1.14-.69-.43.04-.85.15-1.25.33l-.62-.94,8.21-7.17.66,1Z"/><path class="g" d="M620.44,307.36c1.14,1.63,2.05,2.53,2.75,2.71.69.18,2-.25,3.93-1.31l19.29-10.57c1.6-.88,2.51-1.69,2.72-2.43.21-.75-.07-1.96-.84-3.66l.83-.45,6.76,12.33-.83.45c-1-1.56-1.88-2.45-2.63-2.67-.75-.22-1.92.1-3.52.98l-8.67,4.75,7.37,13.45,8.67-4.75c1.6-.88,2.51-1.68,2.73-2.42.22-.74-.06-1.96-.85-3.67l.83-.45,6.76,12.33-.83.45c-1.01-1.57-1.89-2.46-2.63-2.68-.74-.22-1.92.11-3.51.98l-19.82,10.86c-1.62.89-2.52,1.7-2.71,2.43-.19.73.09,1.95.84,3.66l-.83.45-6.76-12.33.83-.45c1.13,1.65,2.04,2.56,2.74,2.73.7.17,2.01-.27,3.94-1.33l8.67-4.75-7.37-13.45-9.2,5.04c-1.62.89-2.53,1.7-2.72,2.44-.19.74.09,1.96.84,3.65l-.83.45-6.76-12.33.83-.45Z"/><path class="g" d="M671.14,342.24c3.98,1.68,6.88,4.62,8.69,8.81,1.82,4.2,1.97,8.34.45,12.4-1.64,4.4-4.95,7.68-9.93,9.83-5.05,2.18-9.76,2.31-14.14.39-3.92-1.73-6.76-4.64-8.52-8.72-1.89-4.37-1.98-8.64-.26-12.8,1.75-4.23,4.99-7.37,9.72-9.42,4.97-2.15,9.64-2.31,13.99-.48ZM649.85,355.6c-1.51,2.93-1.65,5.8-.44,8.61,1.18,2.74,3.34,4.6,6.46,5.56,3.12.96,7.19.36,12.2-1.81,5.07-2.19,8.31-4.76,9.71-7.7,1.4-2.95,1.52-5.77.36-8.46-1.21-2.79-3.4-4.64-6.57-5.56-3.17-.92-7.21-.32-12.12,1.8-4.89,2.11-8.09,4.64-9.6,7.57Z"/><path class="g" d="M660.07,391.16c.78,1.78,1.52,2.81,2.23,3.08.71.27,2.05.08,4.03-.57l20.94-6.92c1.69-.56,2.72-1.18,3.09-1.87.37-.69.34-1.92-.09-3.7l.88-.29,4.21,12.73c1.35,4.09,1.59,7.48.71,10.17-.88,2.7-2.62,4.47-5.23,5.34-3.3,1.09-6.09.68-8.37-1.24-2.28-1.92-4.02-4.69-5.22-8.3-.17-.52-.37-1.19-.6-2.02-.23-.82-.41-1.43-.54-1.83l-8.73,2.89c-1.82.6-2.88,1.26-3.17,1.98-.28.72-.18,2.07.32,4.06l-.88.29-4.46-13.51.88-.29ZM693.86,398.05c.15-1.57-.13-3.4-.82-5.5-.33-.99-.63-1.57-.9-1.73-.27-.16-.75-.13-1.42.09l-12.61,4.17c.17.9.29,1.49.36,1.77.07.27.14.54.23.79.73,2.22,1.63,3.87,2.68,4.93,1.92,1.93,4.46,2.38,7.63,1.33,2.97-.98,4.59-2.93,4.86-5.85Z"/><path class="g" d="M681.02,427.62c-2.01,1.37-3.54,2.78-4.58,4.22-1.82,2.51-2.38,5.22-1.68,8.13.38,1.57,1.21,2.81,2.49,3.72,1.28.91,2.81,1.14,4.6.71,1.61-.39,2.88-1.31,3.79-2.76.58-.94,1.33-2.81,2.26-5.6l1.62-4.86c.5-1.47,1.07-2.67,1.71-3.62,1.23-1.77,2.79-2.88,4.67-3.34,2.5-.6,4.78-.28,6.85.98,2.06,1.26,3.42,3.25,4.09,5.99.27,1.13.34,2.55.19,4.27-.15,1.72-.19,2.69-.14,2.91.15.61.39,1,.72,1.17.33.17.77.25,1.31.26l.24,1-10.24,3.6-.29-1.18c2.96-1.57,4.86-3.4,5.68-5.48.82-2.08,1.02-4,.6-5.74-.33-1.35-1.01-2.44-2.06-3.25-1.04-.81-2.27-1.05-3.69-.71-1.28.31-2.27.96-2.99,1.95-.73.99-1.4,2.43-2.01,4.3l-1.63,5c-1.02,3.13-2.1,5.42-3.22,6.87-1.15,1.44-2.69,2.39-4.61,2.86-2.59.63-4.99.17-7.19-1.36-2.21-1.53-3.68-3.82-4.42-6.86-.37-1.53-.46-3.19-.29-5,.18-1.81.24-2.83.18-3.07-.14-.58-.42-.93-.84-1.04-.42-.11-.85-.15-1.28-.11l-.26-1.06,10.14-4.01.27,1.12Z"/><path class="g" d="M719.73,530.76c-.44,1.96-.66,3.06-.65,3.29.03.48.18.93.47,1.34.29.42.71.69,1.29.83l.05,1.06-11.35,1.06-.06-1.15c2.22-.8,4-1.78,5.33-2.94,2.5-2.22,3.66-5.1,3.47-8.62-.18-3.56-1.74-6.4-4.66-8.51-2.92-2.12-6.84-3.05-11.76-2.79-4.52.23-8.07,1.61-10.64,4.12-2.57,2.51-3.77,5.59-3.58,9.23.13,2.63.89,5.02,2.25,7.17.78,1.24,1.92,2.58,3.43,4.03l-.89.99c-1.48-1.05-2.79-2.39-3.95-4-1.96-2.75-3.03-5.79-3.2-9.12-.28-5.46,1.24-9.88,4.55-13.27,3.06-3.13,7-4.81,11.82-5.06,4.93-.25,9.15,1.1,12.66,4.05,3.68,3.11,5.66,7.31,5.93,12.58.1,1.84-.08,3.74-.53,5.7Z"/><path class="g" d="M716.53,559.53c2.86,3.25,4.19,7.15,4,11.71-.19,4.58-1.86,8.36-5,11.35-3.4,3.25-7.81,4.76-13.22,4.53-5.5-.24-9.81-2.17-12.91-5.81-2.77-3.26-4.07-7.12-3.88-11.56.2-4.76,1.98-8.64,5.33-11.64,3.42-3.05,7.71-4.46,12.87-4.25,5.42.23,9.69,2.11,12.82,5.66ZM691.49,562.29c-2.64,1.99-4.03,4.5-4.16,7.55-.13,2.98,1.01,5.59,3.41,7.81,2.4,2.22,6.33,3.45,11.8,3.68,5.54.23,9.58-.67,12.13-2.71,2.55-2.04,3.89-4.53,4.02-7.46.13-3.03-1.04-5.66-3.5-7.87-2.46-2.21-6.38-3.43-11.73-3.66-5.34-.23-9.33.65-11.97,2.64Z"/><path class="g" d="M685.44,598.48c-.08,2.11.21,3.51.85,4.2.65.69,2.29,1.22,4.95,1.59l22.16,3.09.91-.58c.97-.62,1.59-1.17,1.87-1.66.28-.49.5-1.25.68-2.27l.94.13-1.2,8.62-26.74,16.03,16.69,2.32c2.74.38,4.59.22,5.53-.49.61-.47,1.13-1.62,1.55-3.45l.94.13-1.65,11.85-.94-.13c.07-1.94-.22-3.27-.87-4.01-.65-.74-2.29-1.29-4.93-1.66l-26.49-3.69.12-.87,30.68-18.4-19.58-2.72c-2.75-.38-4.59-.23-5.54.46-.61.45-1.14,1.57-1.59,3.36l-.94-.13,1.65-11.85.94.13Z"/><path class="g" d="M678.4,644.4c-.24,2-.17,3.3.23,3.89s1.65,1.13,3.78,1.62l21.45,4.94c1.74.4,2.95.4,3.61-.01.66-.41,1.26-1.52,1.82-3.33l.94.22-6.07,26.34-7.13-1.39.31-1.36c2.34.18,3.91-.14,4.73-.95.82-.81,1.55-2.61,2.19-5.4l1.56-6.76c.15-.66.14-1.11-.05-1.35-.18-.24-.61-.43-1.27-.58l-11.06-2.54-1.64,7.13c-.49,2.1-.48,3.52,0,4.24.49.72,1.64,1.48,3.46,2.27l-.27,1.18-11.37-2.62.27-1.18c1.99.07,3.36-.11,4.12-.55.75-.44,1.37-1.7,1.85-3.79l1.64-7.13-10.84-2.5c-1.8-.41-3.02-.4-3.64.04-.63.44-1.23,1.58-1.81,3.42l-.94-.22,3.19-13.85.94.22Z"/><path class="g" d="M669.46,681.34c-.38,1.84-.43,3.09-.14,3.76.28.67,1.33,1.29,3.16,1.87l21.57,6.85c1.72.55,2.93.64,3.63.3.69-.35,1.39-1.4,2.09-3.15l.88.28-8.19,25.75-6.97-1.96.39-1.24c2.26.27,3.83.09,4.71-.52.89-.62,1.78-2.34,2.68-5.17l2.13-6.72c.23-.72.26-1.21.08-1.45-.17-.24-.58-.46-1.21-.66l-10.8-3.43-2.38,7.48c-.66,2.08-.78,3.5-.34,4.27.43.76,1.53,1.62,3.29,2.57l-.36,1.12-11.26-3.58.36-1.12c2,.23,3.4.16,4.19-.22.79-.38,1.51-1.6,2.17-3.67l2.38-7.48-12-3.82c-.96-.31-1.63-.18-2,.38-.37.55-1.03,2.35-2,5.4-1.05,3.3-1.47,5.84-1.25,7.64.21,1.79,1.49,3.76,3.82,5.91l-.42,1.31-7.45-4.72,8.35-26.26.88.28Z"/><path class="g" d="M656.74,720.1c-.58,1.86-.69,3.12-.34,3.78.35.66,1.5,1.39,3.45,2.2l20.33,8.42c1.64.68,2.81.88,3.53.59.71-.28,1.48-1.24,2.32-2.87l.88.37-5.38,12.98c-1.12,2.7-2.4,4.81-3.83,6.33-2.72,2.88-5.82,3.6-9.31,2.15-2.34-.97-3.82-2.47-4.45-4.52-.62-2.04-.59-4.45.09-7.23l-15.87,4.73c-.97.3-1.74.67-2.32,1.13-.58.46-1.1,1.13-1.58,2.03l-.88-.37,3.13-7.56,19.3-5.76.72-2.08-9.23-3.82c-1.73-.72-2.93-.91-3.61-.57-.68.34-1.46,1.36-2.35,3.07l-.88-.37,5.39-13.02.88.37ZM666.25,742.8c0,2.91,1.43,4.96,4.28,6.14,2.74,1.14,5.08.8,7-1.01,1.03-.97,1.96-2.43,2.77-4.4.55-1.33.79-2.18.72-2.56-.07-.38-.46-.71-1.16-1l-11.62-4.81c-1.28,3.42-1.95,5.97-2,7.65Z"/><path class="g" d="M639.53,760.19c-.67,1.74-.93,2.97-.76,3.67.17.7,1.1,1.49,2.8,2.37l20.15,10.36c1.61.83,2.78,1.12,3.52.9.74-.23,1.6-1.15,2.58-2.75l.82.42-12.33,23.98-6.57-3.16.57-1.12c2.2.65,3.79.73,4.78.27.98-.47,2.17-2.04,3.54-4.7l3.16-6.14c.34-.66.44-1.13.31-1.39-.14-.27-.5-.55-1.09-.85l-10.14-5.21-3.57,6.95c-.99,1.92-1.33,3.29-1.04,4.11.3.82,1.23,1.84,2.79,3.05l-.54,1.06-10.37-5.33.54-1.06c1.91.56,3.29.72,4.12.48.83-.24,1.74-1.31,2.72-3.22l3.58-6.95-11.19-5.75c-.9-.46-1.57-.45-2.03.03-.45.48-1.41,2.14-2.86,4.96-1.57,3.06-2.41,5.49-2.5,7.29-.09,1.79.83,3.93,2.76,6.41l-.64,1.25-6.5-5.91,12.56-24.42.82.42Z"/><path class="g" d="M620.63,796.3c-.92,1.89-1.23,3.28-.92,4.18.31.89,1.6,2.04,3.86,3.45l18.95,11.78,1.06-.16c1.13-.17,1.92-.42,2.37-.75.45-.33.96-.93,1.54-1.8l.82.51-4.54,7.3-31.11,3.86,14.36,8.93c2.36,1.47,4.12,2.08,5.27,1.82.75-.18,1.69-1.01,2.81-2.51l.82.51-6.3,10.13-.82-.51c.86-1.75,1.14-3.1.85-4.04-.29-.94-1.56-2.12-3.82-3.52l-22.68-14.1.45-.73,35.54-4.41-16.75-10.42c-2.35-1.46-4.1-2.07-5.24-1.82-.74.16-1.69.98-2.83,2.44l-.82-.51,6.3-10.13.82.51Z"/><path class="g" d="M607.58,873.9c-1.59,1.23-2.45,1.94-2.59,2.13-.29.39-.45.83-.49,1.33-.04.5.11.99.47,1.46l-.65.88-9.45-6.44.7-.94c2.23.81,4.24,1.19,6.01,1.14,3.35-.11,6.07-1.58,8.16-4.42,2.11-2.86,2.7-6.03,1.78-9.51-.92-3.49-3.37-6.7-7.34-9.63-3.65-2.7-7.26-3.89-10.85-3.59-3.58.3-6.46,1.91-8.62,4.83-1.56,2.11-2.49,4.43-2.8,6.96-.18,1.45-.15,3.21.11,5.29l-1.33.21c-.48-1.76-.66-3.63-.54-5.61.22-3.38,1.32-6.4,3.3-9.08,3.24-4.39,7.23-6.84,11.94-7.35,4.36-.46,8.48.74,12.36,3.61,3.98,2.94,6.39,6.67,7.24,11.18.88,4.74-.25,9.23-3.39,13.48-1.09,1.48-2.43,2.83-4.02,4.06Z"/><path class="g" d="M569.39,870.21c-1.07,1.56-1.62,2.7-1.62,3.43,0,.73.72,1.72,2.17,2.96l17.2,14.74c1.37,1.18,2.45,1.74,3.23,1.68.78-.06,1.84-.76,3.18-2.12l.71.61-17.57,20.49-5.63-4.52.86-1c1.98,1.14,3.51,1.59,4.57,1.37,1.06-.22,2.56-1.46,4.49-3.72l4.49-5.24c.49-.56.69-.99.62-1.28-.07-.29-.36-.65-.86-1.08l-8.65-7.41-5.05,5.89c-1.41,1.65-2.07,2.9-1.96,3.78s.78,2.09,2.04,3.64l-.76.88-8.95-7.67.76-.88c1.75,1,3.06,1.48,3.94,1.44.87-.04,2.01-.87,3.41-2.5l5.05-5.89-9.56-8.2c-.77-.66-1.43-.8-1.98-.44-.55.36-1.86,1.75-3.92,4.15-2.23,2.6-3.6,4.77-4.1,6.49-.5,1.72-.1,4.02,1.2,6.9l-.9,1.06-5-7.28,17.91-20.89.71.61Z"/><polygon class="k" points="381.68 172.9 394.25 211.75 435.08 211.7 402.02 235.66 414.69 274.47 381.68 250.44 348.68 274.48 361.34 235.66 328.28 211.7 369.11 211.75 381.68 172.9"/><polygon class="k" points="188.32 415.31 200.89 454.16 241.72 454.11 208.66 478.07 221.32 516.89 188.32 492.85 155.32 516.89 167.98 478.07 134.92 454.12 175.74 454.16 188.32 415.31"/><polygon class="k" points="571.27 417.2 583.85 456.04 624.67 456 591.61 479.96 604.28 518.77 571.27 494.74 538.27 518.78 550.93 479.96 517.87 456 558.7 456.05 571.27 417.2"/><polygon class="k" points="534.05 685.83 543.75 715.81 575.26 715.77 549.75 734.27 559.52 764.22 534.05 745.67 508.58 764.22 518.35 734.27 492.83 715.78 524.34 715.81 534.05 685.83"/><polygon class="k" points="384.51 822.79 397.08 861.64 437.91 861.59 404.85 885.55 417.52 924.36 384.51 900.33 351.51 924.37 364.17 885.55 331.11 861.59 371.94 861.64 384.51 822.79"/><path class="f" d="M242.08,83.79s35.46,3.26,73.57,13.21c43.39,11.32,67.91,30.18,67.91,30.18,0,0,45.58-21.57,73.57-30.18,24.52-7.55,67.91-13.21,67.91-13.21"/><path class="f" d="M240.2,1034.57s37.9-1.34,75.46-13.21c35.84-11.32,67.91-30.18,67.91-30.18,0,0,45.58,21.57,73.57,30.18,24.52,7.55,67.91,13.21,67.91,13.21"/><line class="e" x1="383.57" y1="25.31" x2="383.57" y2="108.32"/><line class="e" x1="359.04" y1="51.72" x2="408.09" y2="51.72"/><line class="j" x1="383.57" y1="1015.71" x2="383.57" y2="1098.71"/><line class="j" x1="359.04" y1="1042.12" x2="408.09" y2="1042.12"/></g></g></svg>