<?xml version="1.0" encoding="UTF-8"?><svg id="b" xmlns="http://www.w3.org/2000/svg" viewBox="0 0 145.26 145.28"><defs><style>.d{fill:#f47a35;}.e{fill:#fff;}</style></defs><g id="c"><path class="d" d="M72.63,145.28c-10.04,0-19.49-1.91-28.32-5.72-8.84-3.81-16.52-8.98-23.06-15.52-6.53-6.54-11.71-14.22-15.52-23.06-3.81-8.84-5.72-18.29-5.72-28.33s1.91-19.49,5.72-28.33c3.81-8.84,8.99-16.53,15.52-23.06,6.54-6.54,14.22-11.72,23.06-15.53C53.14,1.9,62.59,0,72.63,0s19.49,1.9,28.33,5.71c8.84,3.82,16.52,8.99,23.06,15.53,6.53,6.53,11.71,14.22,15.52,23.06,3.82,8.84,5.72,18.28,5.72,28.33s-1.91,19.49-5.72,28.33c-3.81,8.84-8.98,16.52-15.52,23.06-6.54,6.54-14.22,11.71-23.06,15.52-8.84,3.82-18.28,5.72-28.33,5.72"/><path class="e" d="M82.28,107.64l27.51-27.52c1.94-1.93,2.92-4.41,2.92-7.41s-.97-5.47-2.92-7.4l-27.77-27.79c-1.94-1.93-4.36-2.86-7.27-2.79-2.92.1-5.35,1.11-7.28,3.05-1.94,1.94-2.91,4.41-2.91,7.4s.96,5.48,2.91,7.41l9.52,9.53h-34.12c-3,0-5.47,1.01-7.41,3.04-1.94,2.03-2.91,4.55-2.91,7.54s1.02,5.51,3.05,7.54c2.02,2.03,4.54,3.05,7.53,3.05h33.86l-9.79,9.79c-1.94,1.94-2.86,4.36-2.78,7.28.09,2.91,1.1,5.33,3.05,7.27,1.94,1.94,4.41,2.91,7.4,2.91s5.47-.96,7.41-2.91"/></g></svg>