<?xml version="1.0" encoding="UTF-8"?><svg id="b" xmlns="http://www.w3.org/2000/svg" viewBox="0 0 444.45 231.96"><defs><style>.d{fill-rule:evenodd;}.d,.e{fill:#fff;}</style></defs><g id="c"><path class="d" d="M155.46,204.47h-4.68v-4.75h4.68v4.75ZM146.11,204.47h-4.68v-4.75h4.68v4.75ZM136.75,204.47h-4.68v-4.75h4.68v4.75ZM127.4,204.47h-4.68v-4.75h4.68v4.75ZM118.04,204.47h-4.68v-4.75h4.68v4.75ZM108.69,204.47h-4.68v-4.75h4.68v4.75ZM99.33,204.47h-4.68v-4.75h4.68v4.75ZM61.92,204.47h-4.68v-4.75h4.68v4.75ZM52.56,204.47h-4.68v-4.75h4.68v4.75ZM43.21,204.47h-4.68v-4.75h4.68v4.75ZM33.86,204.47h-4.68v-4.75h4.68v4.75Z"/><path class="e" d="M17.8,219.9c-2.46,0-4.78-.47-6.94-1.4-2.17-.93-4.05-2.2-5.65-3.8-1.6-1.6-2.87-3.49-3.8-5.65-.93-2.17-1.4-4.48-1.4-6.94s.47-4.78,1.4-6.94c.93-2.17,2.2-4.05,3.8-5.65,1.6-1.6,3.49-2.87,5.65-3.81,2.16-.93,4.48-1.4,6.94-1.4s4.78.47,6.94,1.4c2.17.94,4.05,2.2,5.65,3.81,1.6,1.6,2.87,3.49,3.8,5.65.93,2.17,1.4,4.48,1.4,6.94s-.47,4.78-1.4,6.94c-.93,2.17-2.2,4.05-3.8,5.65-1.6,1.6-3.49,2.87-5.65,3.8-2.17.94-4.48,1.4-6.94,1.4M19.05,207.97l4.63-4.63c.33-.33.49-.74.49-1.25s-.16-.92-.49-1.25l-4.67-4.67c-.33-.33-.73-.48-1.22-.47-.49.02-.9.19-1.22.51-.33.33-.49.74-.49,1.25s.16.92.49,1.25l1.6,1.6h-5.74c-.51,0-.92.17-1.25.51-.33.34-.49.76-.49,1.27s.17.93.51,1.27c.34.34.76.51,1.27.51h5.7l-1.65,1.65c-.33.33-.48.73-.47,1.22.01.49.19.9.51,1.22.33.33.74.49,1.25.49s.92-.16,1.25-.49"/><path class="e" d="M78.29,219.9c-2.46,0-4.78-.47-6.94-1.4-2.17-.93-4.05-2.2-5.65-3.8-1.6-1.6-2.87-3.49-3.8-5.65-.93-2.17-1.4-4.48-1.4-6.94s.47-4.78,1.4-6.94c.93-2.17,2.2-4.05,3.8-5.65,1.6-1.6,3.49-2.87,5.65-3.81,2.16-.93,4.48-1.4,6.94-1.4s4.78.47,6.94,1.4c2.17.94,4.05,2.2,5.65,3.81,1.6,1.6,2.87,3.49,3.8,5.65.93,2.17,1.4,4.48,1.4,6.94s-.47,4.78-1.4,6.94c-.93,2.17-2.2,4.05-3.8,5.65-1.6,1.6-3.49,2.87-5.65,3.8-2.17.94-4.48,1.4-6.94,1.4M79.54,207.97l4.63-4.63c.33-.33.49-.74.49-1.25s-.16-.92-.49-1.25l-4.67-4.67c-.33-.33-.73-.48-1.22-.47-.49.02-.9.19-1.22.51-.33.33-.49.74-.49,1.25s.16.92.49,1.25l1.6,1.6h-5.74c-.51,0-.92.17-1.25.51-.33.34-.49.76-.49,1.27s.17.93.51,1.27c.34.34.76.51,1.27.51h5.7l-1.65,1.65c-.33.33-.48.73-.47,1.22.01.49.19.9.51,1.22.33.33.74.49,1.25.49s.92-.16,1.25-.49"/><path class="e" d="M169.49,219.9c-2.46,0-4.78-.47-6.94-1.4-2.17-.93-4.05-2.2-5.65-3.8-1.6-1.6-2.87-3.49-3.8-5.65-.93-2.17-1.4-4.48-1.4-6.94s.47-4.78,1.4-6.94c.93-2.17,2.2-4.05,3.8-5.65,1.6-1.6,3.49-2.87,5.65-3.81,2.16-.93,4.48-1.4,6.94-1.4s4.78.47,6.94,1.4c2.17.94,4.05,2.2,5.65,3.81,1.6,1.6,2.87,3.49,3.8,5.65.94,2.17,1.4,4.48,1.4,6.94s-.47,4.78-1.4,6.94c-.93,2.17-2.2,4.05-3.8,5.65-1.6,1.6-3.49,2.87-5.65,3.8-2.17.94-4.48,1.4-6.94,1.4M170.74,207.97l4.63-4.63c.33-.33.49-.74.49-1.25s-.16-.92-.49-1.25l-4.67-4.67c-.33-.33-.73-.48-1.22-.47-.49.02-.9.19-1.22.51-.33.33-.49.74-.49,1.25s.16.92.49,1.25l1.6,1.6h-5.74c-.51,0-.92.17-1.25.51-.33.34-.49.76-.49,1.27s.17.93.51,1.27c.34.34.76.51,1.27.51h5.7l-1.65,1.65c-.33.33-.48.73-.47,1.22.01.49.19.9.51,1.22.33.33.74.49,1.25.49s.92-.16,1.25-.49"/><path class="e" d="M23.5,108.74h4.27c7.5,0,13.15-.9,16.95-2.71,3.8-1.8,6.36-4.22,7.69-7.26,1.42-3.13,2.14-6.55,2.14-10.26,0-6.08-1.99-10.73-5.98-13.96-3.99-3.23-9.54-4.84-16.66-4.84h-8.4v39.03ZM1.42,155.74l-1.42-10.11,8.97-1.99v-74.63l-8.83-.86v-10.82h29.76c7.12,0,13.2.81,18.23,2.42,5.13,1.61,9.26,3.89,12.39,6.84,3.13,2.85,5.41,6.17,6.83,9.97,1.42,3.8,2.14,7.83,2.14,12.11,0,7.03-1.61,12.96-4.84,17.8-3.13,4.84-7.64,8.5-13.53,10.97-5.79,2.47-12.53,3.7-20.22,3.7h-7.4v21.94l20.79,2.99-.43,9.69H1.42Z"/><path class="e" d="M85.97,80.11c-2.28,0-4.18-.81-5.7-2.42-1.42-1.61-2.14-3.47-2.14-5.55s.71-4.03,2.14-5.55c1.52-1.61,3.42-2.42,5.7-2.42s4.03.81,5.55,2.42c1.52,1.52,2.28,3.37,2.28,5.55s-.76,3.94-2.28,5.55c-1.52,1.61-3.37,2.42-5.55,2.42M72.87,155.74l-1.42-7.69,8.26-1.99v-48.28l-7.4.28-1.42-8.55,17.8-3.13,4.41,4.7v55.12l8.26,1.85v7.69h-28.48Z"/><polygon class="e" points="105.12 155.74 103.98 148.05 112.53 146.06 112.53 62.59 104.84 62.59 103.41 54.19 121.21 51.48 125.77 56.18 125.77 145.91 134.74 148.05 134.74 155.74 105.12 155.74"/><path class="e" d="M161.37,127.11c4.46,0,7.79-1.42,9.97-4.27,2.28-2.94,3.42-6.5,3.42-10.68s-1.14-7.41-3.42-10.26c-2.18-2.94-5.51-4.41-9.97-4.41s-7.69,1.47-9.97,4.41c-2.18,2.85-3.28,6.27-3.28,10.26s1.09,7.74,3.28,10.68c2.28,2.85,5.6,4.27,9.97,4.27M161.79,180.81c2.94,0,5.79-.43,8.54-1.28,2.75-.85,4.98-2.14,6.69-3.85,1.8-1.61,2.71-3.51,2.71-5.7s-.81-3.75-2.42-4.99c-1.61-1.14-3.75-2.14-6.41-2.99-2.56-.76-5.41-1.42-8.54-1.99-3.04-.57-5.98-1.28-8.83-2.14-2.75,1.24-4.98,2.85-6.69,4.84-1.71,1.99-2.56,4.32-2.56,6.98,0,2.18.76,4.08,2.28,5.7,1.52,1.71,3.56,3.04,6.12,3.99,2.66.95,5.7,1.42,9.11,1.42M159.52,194.06c-5.22,0-9.92-.9-14.1-2.71-4.18-1.8-7.5-4.37-9.97-7.69-2.37-3.32-3.56-7.22-3.56-11.68s1.23-8.55,3.7-11.68c2.47-3.04,5.22-5.41,8.26-7.12-1.23-1.04-2.23-2.28-2.99-3.7-.66-1.42-1-3.13-1-5.13,0-2.18.52-4.18,1.57-5.98,1.04-1.9,2.28-3.56,3.7-4.99-3.23-2.09-5.84-4.89-7.83-8.4-1.9-3.51-2.85-7.6-2.85-12.25,0-5.41,1.23-10.06,3.7-13.96,2.47-3.89,5.74-6.88,9.83-8.97,4.18-2.09,8.64-3.13,13.39-3.13,3.42,0,6.65.52,9.68,1.57,3.04.95,5.74,2.42,8.12,4.41l14.24-7.12,2.99.43,1.57,11.96-12.82,1.57c1.05,1.8,1.85,3.85,2.42,6.12.66,2.18,1,4.51,1,6.98,0,5.32-1.28,9.87-3.85,13.67-2.47,3.8-5.74,6.69-9.83,8.69-4.08,1.99-8.59,2.99-13.53,2.99h-2.85c-.85-.09-1.71-.24-2.56-.43l-2.85,4.13.43,2.42,14.67,3.42c4.56,1.04,8.5,2.42,11.82,4.13,3.42,1.71,6.08,3.85,7.97,6.41,1.9,2.66,2.85,6.03,2.85,10.11,0,5.6-1.47,10.3-4.41,14.1-2.85,3.89-6.69,6.84-11.53,8.83-4.75,1.99-9.87,2.99-15.38,2.99"/><path class="e" d="M202.4,155.74l-1.71-7.69,8.4-2.28v-48.14l-7.41.28-1.42-8.26,17.09-3.13,4.27,6.69c1.99-2.18,4.27-3.85,6.84-4.99,2.66-1.14,5.22-1.71,7.69-1.71,4.18,0,7.79,1,10.82,2.99,3.04,1.99,5.27,4.65,6.69,7.98l-14.1,7.12-4.56-6.84c-1.42,0-3.13.52-5.13,1.57-1.99.95-3.75,2.56-5.27,4.84-1.42,2.28-2.14,5.32-2.14,9.12v30.77l18.51,3.99v7.69h-38.59Z"/><path class="e" d="M270.64,80.11c-2.28,0-4.18-.81-5.7-2.42-1.42-1.61-2.14-3.47-2.14-5.55s.71-4.03,2.14-5.55c1.52-1.61,3.42-2.42,5.7-2.42s4.03.81,5.55,2.42c1.52,1.52,2.28,3.37,2.28,5.55s-.76,3.94-2.28,5.55c-1.52,1.61-3.37,2.42-5.55,2.42M257.54,155.74l-1.42-7.69,8.26-1.99v-48.28l-7.4.28-1.42-8.55,17.8-3.13,4.41,4.7v55.12l8.26,1.85v7.69h-28.48Z"/><path class="e" d="M290.09,155.74l-1.28-7.55,7.97-2.14v-48.42l-7.41.14-1.42-8.26,17.8-3.13,4.13,5.55c2.28-1.52,4.94-2.75,7.97-3.7,3.13-1.04,6.17-1.57,9.11-1.57,3.61,0,6.88.57,9.83,1.71,2.94,1.04,5.36,2.75,7.26,5.13,2.56-1.99,5.08-3.47,7.55-4.41,2.47-.95,4.8-1.57,6.98-1.85,2.28-.38,4.27-.57,5.98-.57,4.27,0,7.97.71,11.11,2.14,3.23,1.42,5.74,3.61,7.55,6.55,1.8,2.85,2.71,6.5,2.71,10.97v39.88l7.97,1.85-.14,7.69h-29.05l-.28-7.69,8.26-1.85v-37.32c0-3.8-.9-6.6-2.71-8.4-1.8-1.8-4.37-2.71-7.69-2.71-2.47,0-5.03.57-7.69,1.71-2.56,1.05-4.75,2.52-6.55,4.42v42.44l8.12,1.71-.14,7.69h-28.62l-.29-7.69,7.69-1.85v-37.32c0-3.8-.9-6.6-2.71-8.4-1.8-1.8-4.37-2.71-7.69-2.71-2.85,0-5.6.62-8.26,1.85-2.66,1.23-4.65,2.52-5.98,3.85v42.73l8.4,1.85-.14,7.69h-28.34Z"/><path class="e" d="M419.67,156.17c-4.37,0-8.26-.76-11.68-2.28-3.42-1.52-6.22-3.42-8.4-5.7-2.18-2.37-3.8-4.65-4.84-6.84l14.81-5.7,3.56,8.26c.47.19,1.33.47,2.56.86,1.33.38,2.94.57,4.84.57,1.24,0,2.56-.28,3.99-.85,1.52-.57,2.8-1.42,3.85-2.56,1.04-1.23,1.57-2.85,1.57-4.84s-.66-3.8-1.99-5.13c-1.23-1.33-2.94-2.42-5.13-3.28-2.18-.95-4.56-1.95-7.12-2.99-5.89-2.09-10.35-4.75-13.39-7.98-2.94-3.23-4.41-7.07-4.41-11.54,0-3.89,1-7.31,2.99-10.26,2.09-2.94,4.89-5.22,8.4-6.84,3.51-1.71,7.31-2.56,11.39-2.56,4.46,0,8.26.76,11.39,2.28,3.23,1.42,5.84,3.23,7.83,5.41,2.09,2.18,3.61,4.27,4.56,6.27l-14.81,5.7-3.42-7.26c-.28-.19-.9-.47-1.85-.85-.95-.38-2.28-.57-3.99-.57-1.42,0-2.8.29-4.13.86-1.33.47-2.47,1.23-3.42,2.28-.86,1.04-1.28,2.42-1.28,4.13,0,1.8.66,3.32,1.99,4.56,1.42,1.23,3.42,2.42,5.98,3.56,2.56,1.04,5.51,2.28,8.83,3.7,4.75,1.9,8.45,4.42,11.11,7.55,2.75,3.04,4.13,6.93,4.13,11.68,0,4.37-1.19,8.12-3.56,11.25-2.28,3.04-5.27,5.32-8.97,6.84-3.61,1.52-7.41,2.28-11.39,2.28"/><polygon class="e" points="303.3 39.43 302.5 34.75 306.31 34.01 306.31 5.41 302.73 5.07 302.73 .06 316.51 .06 329.84 34.13 329.84 5.36 326.48 4.9 326.48 .06 338.38 .06 339.18 5.01 335.42 5.7 335.42 39.43 324.77 39.43 311.9 6.78 311.9 33.84 314.97 34.7 314.92 39.43 303.3 39.43"/><path class="e" d="M279.07,21.19h7.46l-3.42-13.67-4.05,13.67ZM266.88,39.43l-.74-4.16,3.13-1.02L280.49.06h6.72l11.34,34.18,2.68,1.02-.63,4.16h-14.18v-3.99l4.61-1.2-2.22-7.46h-11.39l-2.34,7.69,5.01.91v4.05h-13.22Z"/><polygon class="e" points="251.28 39.43 250.54 34.64 254.41 33.96 254.41 5.36 250.65 4.96 250.65 .06 264.67 .06 265.41 5.01 261.31 5.64 261.31 34.13 265.35 34.7 265.29 39.43 251.28 39.43"/><polygon class="e" points="222.88 39.43 222.14 34.7 225.79 34.01 225.79 5.24 222.26 4.84 222.26 .06 236.1 .06 236.89 4.9 232.68 5.64 232.68 33.78 242.76 33.78 244.87 28.09 249.08 28.09 247.89 39.43 222.88 39.43"/><path class="e" d="M198.66,21.19h7.46l-3.42-13.67-4.05,13.67ZM186.47,39.43l-.74-4.16,3.13-1.02L200.08.06h6.72l11.34,34.18,2.68,1.02-.63,4.16h-14.18v-3.99l4.61-1.2-2.22-7.46h-11.39l-2.34,7.69,5.01.91v4.05h-13.22Z"/><path class="e" d="M165.98,20.23h2.05c2.2,0,4.01-.3,5.41-.91,1.44-.61,2.51-1.46,3.19-2.56.72-1.1,1.08-2.39,1.08-3.87s-.34-2.79-1.02-3.82c-.65-1.06-1.73-1.86-3.25-2.39-1.52-.57-3.59-.87-6.21-.91h-1.25v14.47ZM155.73,39.43l-.46-4.56,3.82-.8V5.36l-3.76-.4V.06h13.27c3.61,0,6.61.53,9,1.6,2.43,1.06,4.23,2.54,5.41,4.44,1.21,1.9,1.82,4.12,1.82,6.67,0,2.81-.72,5.17-2.16,7.07-1.44,1.9-3.4,3.34-5.87,4.33l5.13,10.03,3.59.63v4.61h-9.17l-6.04-13.67c-.68.04-1.39.08-2.11.11-.68.04-1.42.06-2.22.06v8.32l3.19.57v4.61h-13.44Z"/><polygon class="e" points="127.45 39.43 126.99 35.1 133.54 33.9 133.54 5.7 126.88 5.7 124.43 11.4 120.33 11.4 121.47 .06 152.28 .06 153.54 11.34 149.49 11.34 146.99 5.7 140.32 5.7 140.32 33.9 146.93 35.1 146.42 39.43 127.45 39.43"/><path class="e" d="M104.69,39.65c-2.13,0-4.18-.25-6.15-.74-1.94-.53-3.65-1.1-5.13-1.71l.85-10.65,4.56.34.63,6.21c.53.15,1.23.34,2.11.57.87.23,1.82.34,2.85.34,1.21,0,2.34-.17,3.36-.51,1.06-.34,1.92-.87,2.56-1.6.68-.76,1.02-1.73,1.02-2.91,0-1.02-.25-1.88-.74-2.56-.49-.68-1.23-1.33-2.22-1.94-.99-.61-2.28-1.25-3.87-1.94-1.48-.72-2.89-1.42-4.22-2.11-1.29-.68-2.43-1.46-3.42-2.34-.99-.87-1.76-1.92-2.34-3.13-.57-1.21-.85-2.7-.85-4.44,0-2.16.57-4.03,1.71-5.58,1.18-1.6,2.75-2.81,4.73-3.65,2.01-.87,4.22-1.31,6.61-1.31,1.9,0,3.74.15,5.53.46,1.82.3,3.47.68,4.96,1.14l.85,10.48h-4.56l-2.73-6.04c-.53-.11-1.16-.21-1.88-.28-.72-.08-1.41-.11-2.05-.11-1.29,0-2.39.21-3.3.63-.87.38-1.56.91-2.05,1.6-.46.68-.68,1.44-.68,2.28s.25,1.58.74,2.22c.49.65,1.14,1.22,1.94,1.71.84.49,1.71.95,2.62,1.37.95.38,1.86.8,2.73,1.25,2.24,1.06,4.06,2.15,5.47,3.25,1.44,1.06,2.51,2.26,3.19,3.59.68,1.29,1.02,2.81,1.02,4.56,0,2.05-.4,3.82-1.2,5.3-.76,1.44-1.8,2.64-3.13,3.59-1.33.91-2.83,1.59-4.5,2.05-1.67.42-3.34.63-5.01.63"/><path class="e" d="M74.21,39.65c-3.57,0-6.44-.55-8.6-1.65-2.16-1.14-3.72-2.73-4.67-4.79-.95-2.09-1.42-4.6-1.42-7.52V5.36l-3.7-.51V.06h14.47l.06,4.73-3.93.57v20.17c0,2.81.59,4.94,1.77,6.38,1.21,1.41,3.25,2.11,6.09,2.11,1.52,0,2.83-.28,3.93-.85,1.1-.61,1.96-1.54,2.56-2.79.61-1.29.91-2.93.91-4.9V5.3l-3.59-.46V.06h12.48l.06,4.84-3.36.74v20.05c0,2.85-.51,5.34-1.54,7.46-1.02,2.09-2.51,3.7-4.44,4.84-1.94,1.1-4.29,1.65-7.06,1.65"/><path class="e" d="M34.58,21.19h7.46l-3.42-13.67-4.05,13.67ZM22.39,39.43l-.74-4.16,3.13-1.02L36,.06h6.72l11.34,34.18,2.68,1.02-.63,4.16h-14.18v-3.99l4.61-1.2-2.22-7.46h-11.39l-2.34,7.69,5.01.91v4.05h-13.22Z"/><path class="e" d="M212.29,200.09c0-22.07,5.12-31.87,18.5-31.87s17.64,10.12,17.64,31.87c0,23.17-5.2,31.87-18.03,31.87s-18.11-8.62-18.11-31.87ZM238.12,200.09c0-16.77-1.5-23.8-7.72-23.8s-7.79,7.04-7.79,23.8,1.58,23.88,7.79,23.88,7.72-6.48,7.72-23.88Z"/><path class="e" d="M255.2,169.24h25.2v7.83h-15.35v20.17h12.28v8.38h-12.28v25.31h-9.84v-61.69Z"/><path class="e" d="M299.68,169.24h9.84v26.18h11.81v-26.18h9.84v61.69h-9.84v-26.81h-11.81v26.81h-9.84v-61.69Z"/><path class="e" d="M337.94,200.09c0-22.07,5.12-31.87,18.5-31.87s17.64,10.12,17.64,31.87c0,23.17-5.2,31.87-18.03,31.87s-18.11-8.62-18.11-31.87ZM363.77,200.09c0-16.77-1.5-23.8-7.72-23.8s-7.79,7.04-7.79,23.8,1.57,23.88,7.79,23.88,7.72-6.48,7.72-23.88Z"/><path class="e" d="M380.85,169.24h14.49c12.05,0,18.19,5.93,18.19,19.14,0,11.55-4.88,20.25-17.71,20.25h-5.04v22.3h-9.92v-61.69ZM395.26,200.8c5.98,0,8.35-3.8,8.35-12.34s-3.39-11.39-8.42-11.39h-4.41v23.73h4.49Z"/><path class="e" d="M418.96,169.24h24.57v7.91h-14.72v18.51h11.89v8.38h-11.89v18.98h14.88v7.91h-24.72v-61.69Z"/></g></svg>