<?xml version="1.0" encoding="UTF-8"?><svg id="b" xmlns="http://www.w3.org/2000/svg" xmlns:xlink="http://www.w3.org/1999/xlink" viewBox="0 0 541.1 717.71"><defs><style>.e{fill:url(#d);}.f{fill:#f15a24;}.g{fill:#e4f2ff;}.h{fill:#00a99d;}.i{fill:#ffad78;}.j{fill:#4d4d4d;}.k{fill:#fff;}.l{fill:#fcf8ff;}.m{fill:#333;}</style><linearGradient id="d" x1="-5.33" y1="442.47" x2="536.4" y2="236.07" gradientTransform="translate(-102.19 67.03) rotate(-10.51) scale(1.09 1)" gradientUnits="userSpaceOnUse"><stop offset="0" stop-color="#fed4a4"/><stop offset=".39" stop-color="#ffeac9"/><stop offset="1" stop-color="#ffc380"/></linearGradient></defs><g id="c"><path class="i" d="M503.47,670.56l-340.19,33.23L100.2,57.97,440.39,24.74c22.91-2.24,43.31,14.52,45.54,37.44l54.97,562.83c2.24,22.91-14.52,43.31-37.44,45.54Z"/><rect class="g" x="109" y="67.68" width="383.5" height="605.09" transform="translate(-33.72 30.16) rotate(-5.44)"/><rect class="l" x="93.71" y="54.48" width="383.5" height="605.09" transform="translate(-45.1 41.3) rotate(-7.67)"/><path class="e" d="M474.1,638.83l-152.3,40.4-209.4,38.49L0,61.5l209.15-22.06L355.68.84c24.64-4.57,48.01,10.07,52.21,32.71l103.2,556.02c4.2,22.64-12.36,44.7-37,49.27Z"/><path class="m" d="M156.86,266.8l-16.71,2.19-.62-4.71,4.61-.6-3.83-29.25-4.61.6-.62-4.71,15.22-2c8.68-1.14,13.61,1.85,14.67,9.93s-2.32,13.11-11.29,14.29l-4.56.6,1.27,9.72,5.85-.77.62,4.71ZM152.98,247.59c4.61-.6,6.38-3.26,5.72-8.31s-3.57-6.49-7.79-5.94l-4.31.57,1.87,14.28,4.51-.59Z"/><path class="m" d="M184.72,263.15l-13.29,1.74-.62-4.71,3.62-.47-2.13-16.26-3.62.47-.61-4.66,9.72-1.27,2.74,20.92,3.57-.47.62,4.71ZM169.54,225.81l6.2-.81,1.05,8.03-6.2.81-1.05-8.03Z"/><path class="m" d="M200.79,261.05l-13.29,1.74-.62-4.71,3.62-.47-3.83-29.25-3.62.47-.62-4.71,9.72-1.27,4.45,33.96,3.57-.47.62,4.71Z"/><path class="m" d="M204.92,262.62l-.06-.5,6.05-.79.05.35c.32,2.43,1.92,3.88,5.24,3.45,3.77-.49,5.37-2.87,4.7-8.03l-.4-3.07-.15.02c-.64,2.4-2.76,4.7-6.63,5.21-6.79.89-10.58-3.35-11.64-11.44-1.14-8.73,2.06-13.94,8.4-14.77,3.52-.46,6.62.9,8.02,3.49l.15-.02-.15-3.86,8.78-1.15.61,4.66-3.47.45,2.51,19.14c.93,7.09-1.81,12.74-10.39,13.87-7.44.97-10.97-2.09-11.61-7ZM219.56,245.02c-.76-5.8-3.29-8.19-6.71-7.74-3.12.41-5.38,2.82-4.49,9.57.84,6.4,3.24,8.15,6.61,7.71,3.62-.47,5.38-3.58,4.6-9.53Z"/><path class="m" d="M247.68,254.9l-14.28,1.87-.62-4.71,3.62-.47-2.13-16.26-3.62.47-.61-4.66,8.87-1.16,1.11,4.6c.55-2.7,2.38-5.71,6.49-6.25,1.39-.18,2.46-.12,3.5.15l.77,5.85c-1.46-.36-2.74-.5-4.42-.28-3.77.49-5.61,3.36-5.14,6.98l1.28,9.77,4.56-.6.62,4.71Z"/><path class="m" d="M269.2,252.08l-13.29,1.74-.62-4.71,3.62-.47-2.13-16.26-3.62.47-.61-4.66,9.72-1.27,2.74,20.92,3.57-.47.62,4.71ZM254.02,214.73l6.2-.81,1.05,8.03-6.2.81-1.05-8.03Z"/><path class="m" d="M284.42,250.08l-12.44,1.63-.62-4.71,3.62-.47-2.13-16.26-3.62.47-.61-4.66,8.92-1.17.97,3.96c.61-2.65,2.66-5.09,6.63-5.61,3.52-.46,6.11.81,7.56,3.8.85-2.78,3-5.18,6.82-5.68,4.86-.64,8.03,2.02,8.81,7.92l1.66,12.64,3.52-.46.62,4.71-12.35,1.62-.62-4.71,2.73-.36-1.51-11.55c-.49-3.72-1.87-5.05-4.4-4.72-2.97.39-4.39,2.69-3.99,5.72l1.53,11.65,2.53-.33.62,4.71-11.06,1.45-.62-4.71,2.48-.32-1.54-11.75c-.47-3.57-1.8-4.86-4.42-4.51-2.88.38-4.34,2.69-3.94,5.71l1.53,11.65,2.73-.36.62,4.71Z"/><path class="m" d="M315.96,237.98l-.16-1.19,6.05-.79.15,1.14c.34,2.58,1.93,3.98,5.01,3.58,2.83-.37,4.09-1.49,3.79-3.82-.25-1.88-1.29-2.55-3.9-2.82l-4.71-.54c-4.14-.42-6.59-2.16-7.11-6.13s1.34-8.24,9.27-9.28,10.46,2.86,11.03,7.18l.11.84-6.05.79-.09-.69c-.38-2.93-1.74-4.41-4.66-4.03s-3.85,1.77-3.63,3.5c.27,2.03,1.45,2.63,4.17,2.98l4.2.46c4.25.5,7.08,1.69,7.69,6.35.67,5.11-2.79,8.69-9.59,9.58-8.97,1.18-11.01-2.79-11.57-7.11Z"/><path class="f" d="M236.68,266.98l5.28-.69,1.83,13.99,6.34-.83-1.83-13.99,5.28-.69,4.32,32.97-5.28.69-1.88-14.33-6.34.83,1.88,14.33-5.28.69-4.32-32.97Z"/><path class="f" d="M261.92,280.44c-1.55-11.79.51-17.4,7.7-18.34s10.18,4.17,11.7,15.79c1.62,12.39-.56,17.4-7.45,18.3s-10.33-3.33-11.96-15.76ZM275.78,278.62c-1.17-8.96-2.47-12.62-5.81-12.18s-3.69,4.31-2.52,13.27,2.52,12.66,5.86,12.22,3.69-4.01,2.47-13.31Z"/><path class="f" d="M285.33,260.6l7.78-1.02c6.47-.85,10.18,1.89,11.11,8.95.81,6.17-1.2,11.17-8.09,12.07l-2.71.35,1.56,11.92-5.33.7-4.32-32.97ZM295.28,276.45c3.21-.42,4.21-2.62,3.62-7.18s-2.62-5.85-5.32-5.49l-2.37.31,1.66,12.68,2.41-.32Z"/><path class="f" d="M308.33,257.58l13.19-1.73.55,4.23-7.9,1.04,1.3,9.89,6.38-.84.59,4.48-6.38.84,1.33,10.15,7.99-1.05.55,4.23-13.27,1.74-4.32-32.97Z"/><path class="h" d="M141.15,218.09l-3.16.41-.22,4.63-2.67.35,1.32-16.35,3.39-.44,5.43,15.47-2.67.35-1.41-4.42ZM140.5,215.83l-2.11-6.63h-.02s-.31,6.95-.31,6.95l2.45-.32Z"/><path class="h" d="M147.54,217.15l-1.48-11.28,2.55-.33,1.54,11.73c.21,1.59.73,2.27,1.83,2.12s1.39-.93,1.18-2.52l-1.54-11.73,2.55-.33,1.47,11.2c.46,3.53-.61,5.14-3.41,5.51s-4.24-.83-4.7-4.36Z"/><path class="h" d="M159.23,215.87l-.11-.84,2.47-.32.11.84c.17,1.28.46,2.55,2.07,2.34,1.1-.14,1.6-.79,1.39-2.36-.22-1.71-.99-2.17-1.94-2.44l-1.6-.48c-1.73-.5-2.92-1.86-3.22-4.14-.28-2.16.32-4.52,3.66-4.96,3.59-.47,4.25,2.2,4.54,4.4l.1.75-2.47.32-.09-.67c-.29-2.22-.6-3.03-1.93-2.86-1.16.15-1.45.98-1.26,2.43.23,1.73,1.02,2.23,2.12,2.56l1.52.49c1.3.41,2.76,1.28,3.12,4.05s-.75,4.6-3.68,4.98c-3.98.52-4.55-2.1-4.81-4.1Z"/><path class="h" d="M172.33,204.59l-3.32.44-.28-2.12,9.2-1.21.28,2.12-3.32.44,1.81,13.79-2.55.33-1.81-13.79Z"/><path class="h" d="M181.25,201.26l3.87-.51c3.06-.4,4.85.9,5.24,3.92.24,1.84-.23,3.6-1.62,4.61l3.78,6.66v.02s-2.73.36-2.73.36l-3.22-6.22-1.53.2.86,6.53-2.57.34-2.09-15.91ZM186.01,208.15c1.57-.21,2.03-1.32,1.79-3.12s-1.13-2.42-2.49-2.25l-1.22.16.7,5.36,1.22-.16Z"/><path class="h" d="M200.95,210.26l-3.16.41-.22,4.63-2.67.35,1.32-16.35,3.39-.44,5.43,15.47-2.67.35-1.41-4.42ZM200.3,208l-2.11-6.63h-.02s-.31,6.95-.31,6.95l2.45-.32Z"/><path class="h" d="M206.2,197.99l2.55-.33,1.81,13.79,4.26-.56.28,2.12-6.81.89-2.09-15.91Z"/><path class="h" d="M216.33,196.66l2.55-.33,2.09,15.91-2.55.33-2.09-15.91Z"/><path class="h" d="M230.3,206.41l-3.16.41-.22,4.63-2.67.35,1.32-16.35,3.39-.44,5.43,15.47-2.67.35-1.41-4.42ZM229.65,204.15l-2.11-6.63h-.02s-.31,6.95-.31,6.95l2.45-.32Z"/><path class="h" d="M235.56,194.14l2.47-.32,5.87,10.47h.06s-1.45-11.06-1.45-11.06l2.26-.3,2.09,15.91-2.39.31-5.98-10.67h-.06s1.48,11.27,1.48,11.27l-2.26.3-2.09-15.91Z"/><line class="f" x1="158.46" y1="294.61" x2="222.85" y2="286.17"/><path class="j" d="M159.64,295.97l-.99.13c-.82.11-1.57-.47-1.68-1.29s.47-1.57,1.29-1.68l.99-.13c.82-.11,1.57.47,1.68,1.29s-.47,1.57-1.29,1.68Z"/><path class="j" d="M218.15,288.3l-1.95.26c-.82.11-1.57-.47-1.68-1.29s.47-1.57,1.29-1.68l1.95-.26c.82-.11,1.57.47,1.68,1.29s-.47,1.57-1.29,1.68ZM212.3,289.07l-1.95.26c-.82.11-1.57-.47-1.68-1.29s.47-1.57,1.29-1.68l1.95-.26c.82-.11,1.57.47,1.68,1.29s-.47,1.57-1.29,1.68ZM206.45,289.83l-1.95.26c-.82.11-1.57-.47-1.68-1.29s.47-1.57,1.29-1.68l1.95-.26c.82-.11,1.57.47,1.68,1.29s-.47,1.57-1.29,1.68ZM200.6,290.6l-1.95.26c-.82.11-1.57-.47-1.68-1.29s.47-1.57,1.29-1.68l1.95-.26c.82-.11,1.57.47,1.68,1.29s-.47,1.57-1.29,1.68ZM194.75,291.37l-1.95.26c-.82.11-1.57-.47-1.68-1.29s.47-1.57,1.29-1.68l1.95-.26c.82-.11,1.57.47,1.68,1.29s-.47,1.57-1.29,1.68ZM188.9,292.13l-1.95.26c-.82.11-1.57-.47-1.68-1.29s.47-1.57,1.29-1.68l1.95-.26c.82-.11,1.57.47,1.68,1.29s-.47,1.57-1.29,1.68ZM183.04,292.9l-1.95.26c-.82.11-1.57-.47-1.68-1.29s.47-1.57,1.29-1.68l1.95-.26c.82-.11,1.57.47,1.68,1.29s-.47,1.57-1.29,1.68ZM177.19,293.67l-1.95.26c-.82.11-1.57-.47-1.68-1.29s.47-1.57,1.29-1.68l1.95-.26c.82-.11,1.57.47,1.68,1.29s-.47,1.57-1.29,1.68ZM171.34,294.43l-1.95.26c-.82.11-1.57-.47-1.68-1.29s.47-1.57,1.29-1.68l1.95-.26c.82-.11,1.57.47,1.68,1.29s-.47,1.57-1.29,1.68ZM165.49,295.2l-1.95.26c-.82.11-1.57-.47-1.68-1.29s.47-1.57,1.29-1.68l1.95-.26c.82-.11,1.57.47,1.68,1.29s-.47,1.57-1.29,1.68Z"/><path class="j" d="M223.04,287.66l-.99.13c-.82.11-1.57-.47-1.68-1.29s.47-1.57,1.29-1.68l.99-.13c.82-.11,1.57.47,1.68,1.29s-.47,1.57-1.29,1.68Z"/><circle class="f" cx="158.46" cy="294.61" r="10"/><circle class="f" cx="201.01" cy="289.03" r="10"/><circle class="f" cx="222.85" cy="286.17" r="10"/><path class="k" d="M162.02,293.29l-4.18-3.21c-.31-.24-.75-.18-.99.13s-.18.75.13.99l3.62,2.78s-.03.02-.04.03l-3.21,4.18c-.24.31-.18.75.13.99.15.12.34.16.52.14s.35-.12.47-.27l3.21-4.18c.09-.11.12-.24.13-.37.12-.04.24-.11.33-.22.24-.31.18-.75-.13-.99Z"/><path class="k" d="M202.97,287.92l-4.18-3.21c-.31-.24-.75-.18-.99.13s-.18.75.13.99l3.62,2.78s-.03.02-.04.03l-3.21,4.18c-.24.31-.18.75.13.99.15.12.34.16.52.14s.35-.12.47-.27l3.21-4.18c.09-.11.12-.24.13-.37.12-.04.24-.11.33-.22.24-.31.18-.75-.13-.99Z"/><path class="k" d="M226.33,284.86l-4.18-3.21c-.31-.24-.75-.18-.99.13s-.18.75.13.99l3.62,2.78s-.03.02-.04.03l-3.21,4.18c-.24.31-.18.75.13.99.15.12.34.16.52.14s.35-.12.47-.27l3.21-4.18c.09-.11.12-.24.13-.37.12-.04.24-.11.33-.22.24-.31.18-.75-.13-.99Z"/></g></svg>