<?xml version="1.0" encoding="UTF-8"?><svg id="b" xmlns="http://www.w3.org/2000/svg" viewBox="0 0 651.67 24.32"><defs><style>.d{fill:#1f1a00;}</style></defs><g id="c"><path class="d" d="M651.09,9.2s-26.74-5.96-33.79-5.39c-3.07.25-6.72.25-9.92.32-6.47.13-12.95.21-19.44.28-2.45.03-4.11.16-6.35.34-2.72.22-5.85.25-8.7.33-12.67.35-25.49.41-38.2.16-4.32-.08-8.66-.2-12.8-.5-3.88-.28-7.41-.76-11.21-1.08-3.62-.31-7.52-.39-11.34-.47-5.74-.12-11.42-.4-16.86-.84-2.77-.22-5.35-.56-8.09-.79-1.38-.11-2.82-.08-4.14-.22-1.62-.17-3.01-.5-4.4-.75-2.44-.43-4.45-.58-7.43-.6-.29,0-.59,0-.86.02-.44.04-.74.13-1.03.21-2.42.67-6,1.04-9.45,1.38-3.31.33-6.6,1.01-9.87,1.87-3.27-.86-6.56-1.54-9.87-1.87-3.45-.35-7.04-.72-9.45-1.38-.3-.08-.6-.17-1.03-.21-.27-.02-.57-.02-.86-.02-2.98.02-4.99.17-7.43.6-1.39.25-2.79.58-4.4.75-.59.06-1.2.09-1.82.11-2.94-.31-5.84-.66-7.9-1.23-.3-.08-.6-.17-1.03-.21-.27-.02-.57-.02-.86-.02-2.98.02-4.99.17-7.43.6-1.39.25-2.79.58-4.4.75-1.32.14-2.76.1-4.14.22-2.74.23-5.32.56-8.09.79-5.44.44-11.12.72-16.86.84-3.82.08-7.72.16-11.34.47-3.8.33-7.34.8-11.21,1.08-4.14.3-8.48.42-12.8.5-1.41.03-2.82.04-4.23.06-3.51-.05-7.02-.12-10.52-.22-2.85-.08-5.98-.11-8.7-.33-2.25-.18-3.9-.31-6.35-.34-6.49-.07-12.97-.15-19.44-.28-3.2-.06-6.86-.07-9.92-.32-2.22-.18-5.33.02-8.89.39-1.55-.03-3.1-.05-4.64-.08-3.2-.06-6.86-.07-9.92-.32-1.77-.14-4.11-.04-6.79.19-3.89-1.1-7.81-1.99-11.75-2.39-3.45-.35-7.04-.72-9.45-1.38-.3-.08-.6-.17-1.03-.21-.27-.02-.57-.02-.86-.02-2.98.02-4.99.17-7.43.6-1.39.25-2.79.58-4.4.75-1.32.14-2.76.1-4.14.22-2.74.23-5.32.56-8.09.79-5.44.44-11.12.72-16.86.84-3.82.08-7.72.16-11.34.47-3.8.33-7.34.8-11.21,1.08-4.14.3-8.48.42-12.8.5-12.71.25-25.54.19-38.2-.16-2.85-.08-5.98-.11-8.7-.33-2.25-.18-3.9-.31-6.35-.34-6.49-.07-12.97-.15-19.44-.28-3.2-.06-6.86-.07-9.92-.32-7.05-.57-22.98,2.68-33.79,3.12L0,9.2v15.12h651.67v-15.12h-.58Z"/></g></svg>